<?xml version="1.0" encoding="UTF-8" standalone="no"?>
<!-- Created with Inkscape (http://www.inkscape.org/) -->

<svg
   xmlns:dc="http://purl.org/dc/elements/1.1/"
   xmlns:cc="http://creativecommons.org/ns#"
   xmlns:rdf="http://www.w3.org/1999/02/22-rdf-syntax-ns#"
   xmlns:svg="http://www.w3.org/2000/svg"
   xmlns="http://www.w3.org/2000/svg"
   xmlns:sodipodi="http://sodipodi.sourceforge.net/DTD/sodipodi-0.dtd"
   xmlns:inkscape="http://www.inkscape.org/namespaces/inkscape"
   width="210mm"
   height="297mm"
   viewBox="0 0 744.09448819 1052.3622047"
   id="svg2"
   version="1.1"
   inkscape:version="0.91 r13725"
   sodipodi:docname="pine-github-logo.svg">
  <defs
     id="defs4" />
  <sodipodi:namedview
     id="base"
     pagecolor="#ffffff"
     bordercolor="#666666"
     borderopacity="1.0"
     inkscape:pageopacity="0.0"
     inkscape:pageshadow="2"
     inkscape:zoom="0.98994949"
     inkscape:cx="245.23035"
     inkscape:cy="489.81914"
     inkscape:document-units="px"
     inkscape:current-layer="layer1"
     showgrid="false"
     showborder="false"
     inkscape:window-width="1304"
     inkscape:window-height="745"
     inkscape:window-x="54"
     inkscape:window-y="-8"
     inkscape:window-maximized="1"
     showguides="false"
     inkscape:guide-bbox="true">
    <inkscape:grid
       type="xygrid"
       id="grid4157" />
    <sodipodi:guide
       position="272.85714,600.00001"
       orientation="0,1"
       id="guide4145" />
    <sodipodi:guide
       position="230,535.00001"
       orientation="1,0"
       id="guide4147" />
    <sodipodi:guide
       position="200,450.00001"
       orientation="0,1"
       id="guide4149" />
  </sodipodi:namedview>
  <metadata
     id="metadata7">
    <rdf:RDF>
      <cc:Work
         rdf:about="">
        <dc:format>image/svg+xml</dc:format>
        <dc:type
           rdf:resource="http://purl.org/dc/dcmitype/StillImage" />
        <dc:title></dc:title>
      </cc:Work>
    </rdf:RDF>
  </metadata>
  <g
     inkscape:label="Layer 1"
     inkscape:groupmode="layer"
     id="layer1">
    <path
       style="fill:#89f996;fill-opacity:1;stroke:#68bd72;stroke-width:0.4372589;stroke-miterlimit:4;stroke-dasharray:none;stroke-opacity:1"
       d="m 125.51588,600.82455 c -4.26573,0.49883 -8.90551,-1.98398 -8.4842,-6.91296 0.40424,-3.01291 0.0499,-15.41372 1.03116,-6.2074 -0.39668,4.17637 -1.62352,11.45955 4.35027,12.12364 12.12192,1.7932 10.36347,-7.63387 8.65451,-3.13117 -1.75152,0.35907 4.54344,-5.18119 1.64366,-7.87057 1.76296,-9.02884 -3.67654,2.43231 -5.72898,4.79207 -4.04391,6.62914 -0.17991,-1.4897 2.07761,-3.95295 1.16475,-3.81244 8.08468,-8.23955 0.54906,-5.46582 -1.72398,2.81424 -4.86063,8.09012 -6.13925,8.98823 1.63857,-2.33941 8.23693,-12.06952 2.49577,-7.95691 -2.21626,4.171 -3.08081,2.93949 -0.40046,-0.29845 -2.15289,-1.23531 -9.38287,-0.89382 -13.24107,-2.4141 -4.55092,-2.55231 -9.52724,2.59696 -14.4,0.007 -3.4464,-2.07684 -5.669862,-3.15511 -9.834579,-1.14356 -5.005146,1.04649 -9.833107,-0.84055 -13.686076,-3.91111 -1.330143,-0.22153 -3.112449,-5.50992 -0.976748,-1.96748 3.753832,4.23859 9.829739,6.75028 15.484781,5.02771 4.221694,-0.55975 5.284231,-3.67181 7.636772,0.78761 4.32114,3.26902 9.94932,-0.7912 13.38608,-0.28624 8.53337,3.27266 18.06746,3.48941 26.85243,0.99295 3.45012,-0.66335 7.26595,-2.25302 10.16609,-3.24642 1.62886,2.82073 7.50222,1.39429 10.55478,1.14238 4.53995,-1.3244 9.89915,-2.40236 12.78716,-6.47771 0.80718,2.84358 8.00679,4.0356 10.25013,0.51251 0.85657,-4.40426 -4.34132,-6.44552 -7.22817,-8.70921 -8.89189,-6.57106 -16.72909,-15.15541 -20.28615,-25.78847 -5.12858,3.63315 -12.53797,4.38745 -18.08606,1.30309 2.78101,0.54182 9.41487,2.43064 13.57421,0.34886 4.46277,-3.04025 7.45162,-4.76682 12.61061,-5.42967 4.16173,-2.67326 2.52246,-8.4806 8.92777,-5.85614 4.99952,-0.0277 5.78872,-6.56444 1.51154,-8.42692 -4.90417,-2.36713 -10.04138,-4.39847 -14.00255,-8.27069 -3.12212,-2.7247 -7.79069,-5.27627 -8.8422,-9.1683 2.23846,3.15175 5.78964,6.38637 9.30431,8.68197 4.01852,3.64576 9.44006,6.01241 14.09769,7.87877 0.99063,1.03822 3.33251,2.75569 2.99456,5.02441 1.07541,6.19505 -8.02276,3.44258 -9.75334,5.66793 -1.04634,6.44388 -8.65738,4.6125 -11.6157,7.87112 3.78081,12.83972 14.482,22.12832 25.19033,29.35004 2.45122,1.93262 4.04153,6.1372 0.20041,7.65144 -5.35221,1.6033 -9.81308,-2.9463 -14.14465,2.03819 -5.92838,2.40119 -12.95665,4.3203 -19.08801,1.63522 -3.31052,2.5033 -10.72752,1.45449 -12.00112,4.55361 -1.84109,4.76748 1.79771,9.66373 -0.42205,14.29162 -1.92835,2.53916 -5.24701,1.68718 -7.97033,2.22231 z m 1.29537,-3.43061 c 1.00755,-1.82171 7.86109,-11.38857 4.11931,-5.39952 -1.30309,1.69199 -2.38628,4.63303 -4.11931,5.39952 z M 72.588531,573.69796 c -0.407436,-5.15488 6.99613,-6.58936 9.634184,-10.23606 5.973382,-5.87838 10.821139,-12.92254 13.61343,-20.81501 0.267625,2.88836 -2.654411,7.11438 -4.168208,10.04753 -4.392894,6.92961 -10.259375,12.77818 -16.928529,17.50193 -1.546058,0.68942 -1.258112,2.93121 -2.150877,3.50161 z M 97.8965,542.30847 c -4.395163,0.50725 -7.342337,-4.04224 -8.165413,-6.85793 -4.593203,1.58983 -12.735153,-0.8203 -12.017253,-6.7359 2.670502,-4.85276 9.139224,-5.72595 12.981678,-9.51095 7.124408,-5.10887 12.638068,-12.40604 15.648078,-20.58304 -2.50178,-0.87055 -6.30751,-2.64925 -7.78453,-5.89786 -1.77791,-2.71835 -6.955822,-1.56639 -7.657868,-5.31207 1.74915,-3.91068 6.645708,-5.33924 10.178118,-7.50937 7.14501,-4.49143 12.79744,-11.50532 15.45763,-19.54551 1.64925,-4.50173 6.5947,-11.62004 11.72663,-6.76401 5.08679,4.88923 7.0928,12.2606 13.03474,16.39565 4.89246,4.33658 10.94544,6.93991 17.22278,8.51615 3.26654,0.62001 4.17992,5.09874 0.86323,6.59306 -4.61192,0.88906 -7.90121,3.94354 -12.64506,4.59807 -5.51563,3.25618 -0.79231,9.12398 2.39888,12.30697 2.25585,1.63 4.51636,5.40961 0.83157,1.75893 -2.33506,-3.09944 -8.90569,-9.23217 -6.56415,-11.0004 0.65639,-5.31475 8.43256,-3.13825 9.15745,-6.88302 -3.66618,-2.48399 5.06318,1.60158 5.93057,-0.99649 5.4004,-3.57328 -1.08251,-6.4638 -4.65187,-7.02753 -8.07432,-2.51102 -15.15223,-7.90655 -19.86048,-14.91374 -2.41124,-3.68911 -4.34259,-8.88892 -8.99938,-10.06804 -2.74903,-0.10803 -4.74939,1.88687 -6.18192,4.72248 -2.8053,5.31841 -4.43293,11.39256 -8.99317,15.67658 -4.4037,6.04074 -11.96579,8.28449 -17.506897,12.77784 -2.198398,3.08677 3.009193,4.18577 4.966607,4.70697 3.14685,1.75344 3.99284,6.81076 8.41241,6.57708 4.44477,0.59531 8.09322,-1.99915 11.94313,0.93301 5.16086,2.47 10.79619,-0.26636 14.37601,-3.49871 -2.53574,4.54217 -8.74876,6.09995 -13.68373,4.38547 -3.35584,-1.66332 -6.55631,-1.91374 -10.37051,-1.00679 -1.84885,1.56023 -2.41471,5.34968 -4.1546,7.51775 -4.80107,9.05624 -13.440419,15.24796 -22.252185,20.02421 -7.137952,3.48561 0.05124,10.8629 5.521803,9.52912 5.568615,-1.69108 3.631088,-1.30344 4.829943,3.3238 2.863397,4.62877 11.303309,4.44155 13.453919,-0.65242 3.80005,1.57752 5.79027,4.63186 0.78355,1.17895 -2.17058,1.54028 -4.75074,4.17719 -8.22971,3.24169 z m 19.80978,-82.41714 c 0.17608,-0.39073 0.11189,0.27253 0,0 z"
       id="path4147-3"
       inkscape:connector-curvature="0"
       sodipodi:nodetypes="ccccccccccccccccccccccccccccccccccccccccccccccccccccccccccccccccccccccccccccccccccccccccccccccc" />
    <text
       xml:space="preserve"
       style="font-style:normal;font-variant:normal;font-weight:300;font-stretch:normal;font-size:110px;line-height:125%;font-family:'Josefin Sans';-inkscape-font-specification:'Josefin Sans Light';letter-spacing:0px;word-spacing:0px;fill:#68bd72;fill-opacity:1;stroke:none;stroke-width:1px;stroke-linecap:butt;stroke-linejoin:miter;stroke-opacity:1"
       x="218.56412"
       y="548.20898"
       id="text4164-1"
       sodipodi:linespacing="125%"><tspan
         sodipodi:role="line"
         id="tspan4166-5"
         x="218.56412"
         y="548.20898"
         style="font-style:normal;font-variant:normal;font-weight:300;font-stretch:normal;font-size:110px;font-family:'Josefin Sans';-inkscape-font-specification:'Josefin Sans Light';fill:#68bd72;fill-opacity:1">Pine</tspan></text>
    <text
       xml:space="preserve"
       style="font-style:normal;font-weight:normal;font-size:40px;line-height:125%;font-family:sans-serif;letter-spacing:0px;word-spacing:0px;opacity:0.8;fill:#000000;fill-opacity:1;stroke:none;stroke-width:1px;stroke-linecap:butt;stroke-linejoin:miter;stroke-opacity:1"
       x="227.97969"
       y="594.10913"
       id="text4141"
       sodipodi:linespacing="125%"><tspan
         sodipodi:role="line"
         id="tspan4143"
         x="227.97969"
         y="594.10913"
         style="font-style:normal;font-variant:normal;font-weight:300;font-stretch:normal;font-family:'Josefin Sans';-inkscape-font-specification:'Josefin Sans Light'">Take care of your logs</tspan></text>
  </g>
</svg>
