<?xml version="1.0" encoding="UTF-8" standalone="no"?>
<!-- Created with Inkscape (http://www.inkscape.org/) -->

<svg
   xmlns:dc="http://purl.org/dc/elements/1.1/"
   xmlns:cc="http://creativecommons.org/ns#"
   xmlns:rdf="http://www.w3.org/1999/02/22-rdf-syntax-ns#"
   xmlns:svg="http://www.w3.org/2000/svg"
   xmlns="http://www.w3.org/2000/svg"
   xmlns:sodipodi="http://sodipodi.sourceforge.net/DTD/sodipodi-0.dtd"
   xmlns:inkscape="http://www.inkscape.org/namespaces/inkscape"
   width="210mm"
   height="297mm"
   viewBox="0 0 744.09448819 1052.3622047"
   id="svg4168"
   version="1.1"
   inkscape:version="0.91 r13725"
   sodipodi:docname="source.svg">
  <defs
     id="defs4170">
    <pattern
       y="0"
       x="0"
       height="6"
       width="6"
       patternUnits="userSpaceOnUse"
       id="EMFhbasepattern" />
    <pattern
       y="0"
       x="0"
       height="6"
       width="6"
       patternUnits="userSpaceOnUse"
       id="EMFhbasepattern-7" />
    <clipPath
       clipPathUnits="userSpaceOnUse"
       id="clipPath5067">
      <rect
         style="opacity:0.49599998;fill:#68bd72;fill-opacity:1;stroke:#68bd72;stroke-width:1.97988403;stroke-miterlimit:4;stroke-dasharray:none;stroke-opacity:1"
         id="rect5069"
         width="382.02011"
         height="382.02011"
         x="-831.76367"
         y="254.54823" />
    </clipPath>
  </defs>
  <sodipodi:namedview
     id="base"
     pagecolor="#b2b2b2"
     bordercolor="#666666"
     borderopacity="1.0"
     inkscape:pageopacity="0"
     inkscape:pageshadow="2"
     inkscape:zoom="0.5"
     inkscape:cx="170.84919"
     inkscape:cy="484.30268"
     inkscape:document-units="px"
     inkscape:current-layer="layer1"
     showgrid="true"
     showguides="false"
     inkscape:guide-bbox="true"
     showborder="false"
     inkscape:window-width="1304"
     inkscape:window-height="745"
     inkscape:window-x="54"
     inkscape:window-y="-8"
     inkscape:window-maximized="1">
    <inkscape:grid
       type="xygrid"
       id="grid4776"
       spacingx="4"
       spacingy="4.0000001" />
    <sodipodi:guide
       position="360,960.00002"
       orientation="0,1"
       id="guide4911" />
    <sodipodi:guide
       position="400,320.00001"
       orientation="0,1"
       id="guide4913" />
    <sodipodi:guide
       position="160,680.00002"
       orientation="1,0"
       id="guide4915" />
    <sodipodi:guide
       position="520,700.00002"
       orientation="1,0"
       id="guide4917" />
    <sodipodi:guide
       position="376,936.00002"
       orientation="0,1"
       id="guide4919" />
    <sodipodi:guide
       position="408,368.00001"
       orientation="0,1"
       id="guide4921" />
    <sodipodi:guide
       position="420,720.00002"
       orientation="0,1"
       id="guide4923" />
    <sodipodi:guide
       position="680,560.00001"
       orientation="0,1"
       id="guide4925" />
    <sodipodi:guide
       position="340,780.00002"
       orientation="1,0"
       id="guide4927" />
  </sodipodi:namedview>
  <metadata
     id="metadata4173">
    <rdf:RDF>
      <cc:Work
         rdf:about="">
        <dc:format>image/svg+xml</dc:format>
        <dc:type
           rdf:resource="http://purl.org/dc/dcmitype/StillImage" />
        <dc:title></dc:title>
      </cc:Work>
    </rdf:RDF>
  </metadata>
  <g
     inkscape:label="Layer 1"
     inkscape:groupmode="layer"
     id="layer1">
    <g
       id="g5033">
      <rect
         inkscape:export-ydpi="90"
         inkscape:export-xdpi="90"
         y="92.376343"
         x="160.08311"
         height="640"
         width="359.84375"
         id="rect5396-9-4-8"
         style="opacity:1;fill:#ffffff;fill-opacity:1;stroke:none;stroke-width:10;stroke-miterlimit:4;stroke-dasharray:none;stroke-opacity:1" />
      <path
         style="fill:#1a1a1a;fill-opacity:1;fill-rule:nonzero;stroke:none"
         d="m 160.00497,684.25135 359.99998,0 0,48 -359.99998,0 z"
         id="path4848"
         inkscape:connector-curvature="0" />
      <g
         inkscape:export-ydpi="90"
         inkscape:export-xdpi="90"
         transform="matrix(0.50048227,0,0,0.50048227,156.38836,509.20581)"
         id="g4709-8-3-4">
        <path
           sodipodi:type="star"
           style="opacity:0.9;fill:none;fill-opacity:1;stroke:#ffffff;stroke-width:3.79999995;stroke-miterlimit:4;stroke-dasharray:none;stroke-opacity:1"
           id="path4695-0-2-5"
           sodipodi:sides="3"
           sodipodi:cx="169.30275"
           sodipodi:cy="396.0441"
           sodipodi:r1="18.847185"
           sodipodi:r2="9.8005362"
           sodipodi:arg1="1.0471976"
           sodipodi:arg2="2.0943951"
           inkscape:flatsided="false"
           inkscape:rounded="0.05"
           inkscape:randomized="0"
           d="m 178.72634,412.36624 c -0.70696,0.40816 -13.6169,-7.42647 -14.32386,-7.83463 -0.70696,-0.40816 -13.94692,-7.67119 -13.94692,-8.48751 0,-0.81633 13.23996,-8.07935 13.94692,-8.48752 0.70696,-0.40816 13.61691,-8.24279 14.32386,-7.83462 0.70696,0.40816 0.37695,15.50581 0.37695,16.32214 0,0.81632 0.33001,15.91398 -0.37695,16.32214 z"
           inkscape:transform-center-x="4.7118044" />
        <circle
           style="opacity:0.9;fill:none;fill-opacity:1;stroke:#ffffff;stroke-width:3.79999995;stroke-miterlimit:4;stroke-dasharray:none;stroke-opacity:1"
           id="path4699-6-5-8"
           cx="365.55804"
           cy="396.0441"
           r="15.361675" />
        <rect
           ry="0.48688215"
           style="opacity:0.9;fill:none;fill-opacity:1;stroke:#ffffff;stroke-width:3.79999995;stroke-miterlimit:4;stroke-dasharray:none;stroke-opacity:1"
           id="rect4705-5-6-5"
           width="28.21365"
           height="28.21365"
           x="550.46631"
           y="381.93729"
           rx="0.48688215" />
      </g>
      <rect
         y="92.368103"
         x="160.005"
         height="24"
         width="360"
         id="rect4174"
         style="opacity:1;fill:#68bd72;fill-opacity:1;stroke:none;stroke-width:1.39999998;stroke-miterlimit:4;stroke-dasharray:none;stroke-opacity:1" />
      <g
         inkscape:export-ydpi="90"
         inkscape:export-xdpi="90"
         id="g4667-0-3-2"
         transform="matrix(0.50048227,0,0,0.50048227,155.57236,26.791006)">
        <g
           id="g4408-3-2-3">
          <path
             inkscape:connector-curvature="0"
             id="path4147-03-5-3"
             d="m 535.40996,140.73506 a 25.6301,25.6301 0 0 0 -16.58007,6.12109 l 16.40234,21.10157 16.55469,-21.29688 a 25.6301,25.6301 0 0 0 -16.37696,-5.92578 z"
             style="opacity:0.35;fill:#ffffff;fill-opacity:1;stroke:none;stroke-width:2.10408354;stroke-miterlimit:4;stroke-dasharray:none;stroke-opacity:1" />
          <path
             id="path4147-0-6-75-4"
             d="m 535.34231,148.6495 a 18.092023,18.092023 0 0 0 -11.7037,4.32082 l 11.57824,14.89538 11.68578,-15.03324 a 18.092023,18.092023 0 0 0 -11.56032,-4.18296 z"
             style="opacity:0.9;fill:#ffffff;fill-opacity:1;stroke:none;stroke-width:2.10408354;stroke-miterlimit:4;stroke-dasharray:none;stroke-opacity:1"
             inkscape:connector-curvature="0" />
        </g>
        <g
           id="g4414-3-80-3">
          <path
             inkscape:connector-curvature="0"
             id="rect4228-5-7-6"
             d="m 591.44999,138.28381 -29.60938,29.60938 0.12891,0.1289 29.77343,0 0,-29.44531 -0.29296,-0.29297 z"
             style="opacity:0.35;fill:#ffffff;fill-opacity:1;stroke:none;stroke-width:1.39999998;stroke-miterlimit:4;stroke-dasharray:none;stroke-opacity:1" />
          <path
             id="rect4228-2-7-0-5"
             d="m 584.47023,145.13188 -22.78553,22.78554 0.0992,0.0991 22.91178,0 0,-22.65928 -0.22545,-0.22544 z"
             style="opacity:0.9;fill:#ffffff;fill-opacity:1;stroke:none;stroke-width:1.39999998;stroke-miterlimit:4;stroke-dasharray:none;stroke-opacity:1"
             inkscape:connector-curvature="0" />
        </g>
        <text
           xml:space="preserve"
           style="font-style:normal;font-weight:normal;font-size:28.16656876px;line-height:125%;font-family:sans-serif;letter-spacing:0px;word-spacing:0px;opacity:0.9;fill:#ffffff;fill-opacity:1;stroke:none;stroke-width:1px;stroke-linecap:butt;stroke-linejoin:miter;stroke-opacity:1"
           x="641.41425"
           y="167.5847"
           id="text4402-2-7-1"
           sodipodi:linespacing="125%"><tspan
             sodipodi:role="line"
             id="tspan4404-5-0-6"
             x="641.41425"
             y="167.5847"
             style="font-style:normal;font-variant:normal;font-weight:500;font-stretch:normal;font-family:Roboto;-inkscape-font-specification:'Roboto Medium';fill:#ffffff">09:42</tspan></text>
        <g
           id="g4585-5-83-3"
           transform="translate(5.8907693,68.417943)">
          <path
             inkscape:connector-curvature="0"
             id="rect4275-4-5-08-4"
             d="m 607.5728,70.326171 0,2.822266 -5.05665,0 0,26.375 19.375,0 0,-26.375 -4.94532,0 0,-2.822266 -9.37303,0 z m 1.64257,9.378907 c 0.72087,0 1.29124,0.233134 1.71289,0.699218 0.42503,0.461849 0.63671,1.092091 0.63671,1.888672 0,0.449139 -0.0893,0.845915 -0.26952,1.19336 -0.18023,0.347445 -0.42791,0.626364 -0.74414,0.833984 0.36043,0.216096 0.64659,0.515142 0.85741,0.896484 0.21083,0.377106 0.31447,0.821291 0.31447,1.333985 0,0.822005 -0.22303,1.472373 -0.67188,1.951172 -0.44884,0.47456 -1.06015,0.710937 -1.83203,0.710937 -0.77188,0 -1.3837,-0.237998 -1.83595,-0.716797 -0.45223,-0.478797 -0.67773,-1.127544 -0.67773,-1.945312 0,-0.512694 0.10559,-0.960454 0.31641,-1.341797 0.21083,-0.381342 0.49453,-0.676813 0.85157,-0.888672 -0.31623,-0.20762 -0.56588,-0.486539 -0.74611,-0.833984 -0.17676,-0.347445 -0.26366,-0.744221 -0.26366,-1.19336 0,-0.788108 0.21116,-1.416726 0.63281,-1.882812 0.42164,-0.470321 0.99449,-0.705078 1.71875,-0.705078 z m 5.85546,0 c 0.78548,0 1.40026,0.234757 1.84572,0.705078 0.44543,0.466086 0.66796,1.111587 0.66796,1.933594 0,0.423715 -0.10312,0.81205 -0.31054,1.167968 -0.20742,0.355922 -0.47977,0.629641 -0.81641,0.820313 0.41824,0.186433 0.72957,0.466975 0.93359,0.839843 0.20741,0.372868 0.31055,0.813809 0.31055,1.322266 0,0.822005 -0.24176,1.480816 -0.72462,1.976563 -0.47943,0.495747 -1.11397,0.742187 -1.90625,0.742187 -0.74127,0 -1.34961,-0.243197 -1.82225,-0.730469 -0.46925,-0.487271 -0.70313,-1.130819 -0.70313,-1.93164 l 1.47461,0 c 0,0.347445 0.10312,0.631229 0.31054,0.851562 0.21082,0.22033 0.46937,0.330078 0.77539,0.330078 0.35024,0 0.6231,-0.114946 0.82032,-0.34375 0.20062,-0.233043 0.30077,-0.538579 0.30077,-0.919921 0,-0.9237 -0.40657,-1.386719 -1.22264,-1.386719 l -0.78125,0 0,-1.435547 0.78514,0 c 0.37405,0 0.65183,-0.116567 0.83204,-0.34961 0.18024,-0.233044 0.26954,-0.542155 0.26954,-0.927734 0,-0.372868 -0.0893,-0.663474 -0.26954,-0.871094 -0.17681,-0.20762 -0.42154,-0.3125 -0.73438,-0.3125 -0.28222,0 -0.51856,0.09806 -0.70898,0.292969 -0.19045,0.190672 -0.28516,0.440689 -0.28516,0.75 l -1.47461,0 c 0,-0.483034 0.10314,-0.915533 0.31056,-1.296875 0.21082,-0.385581 0.50292,-0.686251 0.87694,-0.902344 0.37744,-0.216094 0.79386,-0.324218 1.24609,-0.324218 z m -5.85546,1.480468 c -0.27542,0 -0.48956,0.106504 -0.64257,0.31836 -0.15307,0.211857 -0.23047,0.504084 -0.23047,0.876953 0,0.368632 0.0774,0.666056 0.23047,0.890625 0.15301,0.224567 0.36765,0.335937 0.64648,0.335937 0.27882,0 0.49297,-0.11137 0.64257,-0.335937 0.15298,-0.224569 0.23048,-0.521993 0.23048,-0.890625 0,-0.360155 -0.0775,-0.647185 -0.23048,-0.863281 -0.15301,-0.22033 -0.36764,-0.332032 -0.64648,-0.332032 z m -0.006,3.902344 c -0.31282,0 -0.56299,0.121762 -0.75,0.363281 -0.18705,0.23728 -0.28125,0.560031 -0.28125,0.966797 0,0.394053 0.0918,0.711608 0.27539,0.953125 0.18363,0.241517 0.4392,0.361328 0.76563,0.361328 0.31962,0 0.56978,-0.116567 0.75,-0.349609 0.18359,-0.233043 0.27539,-0.553841 0.27539,-0.964844 0,-0.402529 -0.0942,-0.725281 -0.28125,-0.966797 -0.18702,-0.241519 -0.43767,-0.363281 -0.75391,-0.363281 z"
             style="opacity:0.35;fill:#ffffff;fill-opacity:1;stroke:none;stroke-width:1.39999998;stroke-miterlimit:4;stroke-dasharray:none;stroke-opacity:1" />
          <path
             inkscape:connector-curvature="0"
             id="rect4279-1-7-3-9"
             d="m 602.33646,77.515014 0,22.037108 19.73437,0 0,-22.037108 -19.73437,0 z m 6.8789,2.19336 c 0.72088,0 1.29125,0.233135 1.7129,0.699219 0.42502,0.461849 0.63671,1.09209 0.63671,1.888671 0,0.44914 -0.0893,0.845915 -0.26953,1.19336 -0.18022,0.347445 -0.42791,0.626364 -0.74414,0.833984 0.36044,0.216096 0.6466,0.515143 0.85742,0.896485 0.21082,0.377106 0.31446,0.82129 0.31446,1.333984 0,0.822005 -0.22303,1.472373 -0.67188,1.951172 -0.44884,0.47456 -1.06015,0.710937 -1.83203,0.710937 -0.77187,0 -1.3837,-0.237998 -1.83594,-0.716796 -0.45224,-0.478798 -0.67773,-1.127545 -0.67773,-1.945313 0,-0.512694 0.10558,-0.960454 0.3164,-1.341797 0.21084,-0.381342 0.49453,-0.676813 0.85157,-0.888672 -0.31623,-0.20762 -0.56588,-0.486539 -0.7461,-0.833984 -0.17681,-0.347445 -0.26367,-0.74422 -0.26367,-1.19336 0,-0.788108 0.21117,-1.416726 0.63281,-1.882812 0.42164,-0.470321 0.99449,-0.705078 1.71875,-0.705078 z m 5.85547,0 c 0.78548,0 1.40026,0.234757 1.84571,0.705078 0.44544,0.466086 0.66796,1.111588 0.66796,1.933594 10e-6,0.423715 -0.10312,0.81205 -0.31054,1.167968 -0.20742,0.355922 -0.47977,0.629641 -0.81641,0.820313 0.41824,0.186433 0.72958,0.466975 0.9336,0.839844 0.20742,0.372868 0.31054,0.813808 0.31054,1.322265 0,0.822005 -0.24176,1.480816 -0.72461,1.976563 -0.47944,0.495747 -1.11397,0.742187 -1.90625,0.742187 -0.74127,0 -1.34962,-0.243196 -1.82226,-0.730468 -0.46925,-0.487271 -0.70313,-1.13082 -0.70313,-1.931641 l 1.47461,0 c 0,0.347445 0.10312,0.63123 0.31055,0.851563 0.21081,0.22033 0.46936,0.330078 0.77539,0.330078 0.35023,0 0.62309,-0.114946 0.82031,-0.34375 0.20062,-0.233043 0.30078,-0.53858 0.30078,-0.919922 0,-0.923699 -0.40657,-1.386719 -1.22265,-1.386719 l -0.78125,0 0,-1.435547 0.78515,0 c 0.37404,0 0.65182,-0.116566 0.83203,-0.349609 0.18022,-0.233044 0.26954,-0.542156 0.26954,-0.927735 0,-0.372868 -0.0893,-0.663473 -0.26954,-0.871093 -0.17681,-0.20762 -0.42154,-0.3125 -0.73437,-0.3125 -0.28223,0 -0.51856,0.09806 -0.70899,0.292968 -0.19041,0.190672 -0.28515,0.440689 -0.28515,0.75 l -1.47461,0 c 0,-0.483034 0.10313,-0.915533 0.31055,-1.296875 0.21082,-0.385581 0.50292,-0.68625 0.87695,-0.902343 0.37744,-0.216094 0.79385,-0.324219 1.24609,-0.324219 z m -5.85547,1.480469 c -0.27542,0 -0.48956,0.106503 -0.64257,0.318359 -0.15302,0.211857 -0.23047,0.504084 -0.23047,0.876953 0,0.368632 0.0774,0.666056 0.23047,0.890625 0.15301,0.224567 0.36765,0.335938 0.64648,0.335938 0.27883,0 0.49297,-0.111371 0.64258,-0.335938 0.15301,-0.224569 0.23047,-0.521993 0.23047,-0.890625 0,-0.360155 -0.0775,-0.647185 -0.23047,-0.863281 -0.15301,-0.22033 -0.36765,-0.332031 -0.64649,-0.332031 z m -0.006,3.902343 c -0.31282,0 -0.56298,0.121763 -0.75,0.363282 -0.187,0.23728 -0.28124,0.56003 -0.28124,0.966796 -1e-5,0.394053 0.0918,0.711608 0.27539,0.953126 0.18362,0.241517 0.43919,0.361328 0.76562,0.361328 0.31963,0 0.56978,-0.116568 0.75,-0.34961 0.18362,-0.233043 0.27539,-0.553841 0.27539,-0.964844 0,-0.402529 -0.0942,-0.72528 -0.28125,-0.966796 -0.18702,-0.241519 -0.43767,-0.363282 -0.75391,-0.363282 z"
             style="opacity:0.9;fill:#ffffff;fill-opacity:1;stroke:none;stroke-width:1.39999998;stroke-miterlimit:4;stroke-dasharray:none;stroke-opacity:1" />
        </g>
      </g>
    </g>
    <g
       id="g5028"
       transform="translate(4.9466029e-6,28)">
      <path
         sodipodi:nodetypes="cccccccccccccccccccccccccccccccccccccccccccccccccccccccccccccccccccccccccccccccccccccccccccccccccc"
         inkscape:connector-curvature="0"
         id="path4147"
         d="m 262.38716,435.93772 c 0.69389,-1.20172 0.71057,0.55593 0,0 z m 75.42263,-13.99101 c -6.57187,0.76853 -13.72001,-3.05656 -13.07094,-10.65025 0.62279,-4.64176 0.0767,-23.74672 1.58863,-9.56324 -0.61113,6.4342 -2.50123,17.65483 6.70212,18.67794 18.67528,2.76264 15.96619,-11.7609 13.33333,-4.82395 -2.69844,0.55317 6.99974,-7.98225 2.53225,-12.12558 2.71606,-13.91001 -5.66415,3.74729 -8.8262,7.38278 -6.23012,10.21298 -0.27717,-2.29506 3.20082,-6.09001 1.79443,-5.87352 12.45543,-12.69403 0.8459,-8.42076 -2.656,4.33568 -7.4884,12.46381 -9.45826,13.84746 2.52441,-3.60413 12.69,-18.59455 3.84503,-12.25859 -3.41443,6.42595 -4.74637,4.52865 -0.61696,-0.4598 -3.31679,-1.90313 -14.45547,-1.37704 -20.39949,-3.71919 -7.01125,-3.93217 -14.67787,4.00091 -22.18496,0.0101 -5.30958,-3.19964 -8.7351,-4.86083 -15.15135,-1.7618 -7.71104,1.61225 -15.14909,-1.29496 -21.08506,-6.02553 -2.04925,-0.34131 -4.79511,-8.48871 -1.5048,-3.03113 5.78322,6.53004 15.1439,10.39962 23.85619,7.74577 6.50403,-0.86234 8.141,-5.65688 11.76537,1.21342 6.65726,5.03634 15.32815,-1.21894 20.62287,-0.44098 13.14673,5.04191 27.83515,5.37587 41.36946,1.52976 5.31534,-1.02199 11.19409,-3.47105 15.66211,-5.00152 2.50945,4.34569 11.55809,2.14807 16.26091,1.75998 6.99435,-2.04042 15.25085,-3.70113 19.70018,-9.97969 1.24356,4.38088 12.33545,6.21732 15.79158,0.78958 1.31965,-6.7853 -6.68834,-9.93012 -11.13588,-13.41759 -13.69903,-10.12353 -25.7732,-23.34876 -31.25328,-39.7303 -7.90122,5.59733 -19.31626,6.75942 -27.86378,2.00756 4.28449,0.83475 14.50475,3.74471 20.91271,0.53746 6.87545,-4.68386 11.48012,-7.34384 19.42819,-8.36506 6.41164,-4.11848 3.88615,-13.0654 13.75433,-9.02209 7.70235,-0.0426 8.91822,-10.11333 2.32871,-12.98269 -7.55547,-3.64685 -15.46999,-6.77639 -21.57262,-12.74202 -4.81003,-4.19773 -12.00253,-8.12873 -13.6225,-14.12488 3.44862,4.85566 8.91964,9.83898 14.33441,13.37563 6.19102,5.61674 14.54358,9.26285 21.71921,12.13821 1.52619,1.59952 5.13412,4.24546 4.61349,7.74072 1.65681,9.54423 -12.36004,5.3037 -15.02621,8.73213 -1.61201,9.92759 -13.33775,7.10613 -17.8954,12.12643 5.82479,19.78114 22.31128,34.09136 38.80878,45.21731 3.77638,2.97743 6.22645,9.45509 0.30873,11.78798 -8.24571,2.47007 -15.11823,-4.53913 -21.79155,3.14008 -9.13339,3.69932 -19.96128,6.65594 -29.40741,2.51926 -5.10024,3.85661 -16.52704,2.24079 -18.48918,7.01539 -2.83641,7.34488 2.76961,14.88812 -0.65021,22.01797 -2.97087,3.91189 -8.08367,2.59931 -12.27927,3.42373 z m 1.99569,-5.28526 c 1.55223,-2.80657 12.11096,-17.54547 6.34629,-8.31861 -2.00757,2.60672 -3.67634,7.13773 -6.34629,8.31861 z m -83.53672,-36.50654 c -0.62771,-7.94173 10.77838,-10.15172 14.84265,-15.7699 9.2027,-9.05636 16.67127,-19.90875 20.97313,-32.06806 0.41231,4.44987 -4.08943,10.9606 -6.42161,15.47945 -6.76779,10.67589 -15.80583,19.68634 -26.08048,26.96385 -2.38189,1.06214 -1.93826,4.51588 -3.31369,5.39466 z m 38.99002,-48.35933 c -6.7713,0.78147 -11.31177,-6.22757 -12.57981,-10.56547 -7.0764,2.44933 -19.62008,-1.26378 -18.51405,-10.3775 4.11422,-7.47625 14.08008,-8.8215 19.99985,-14.65276 10.97602,-7.87083 19.47049,-19.11302 24.10777,-31.71069 -3.8543,-1.34118 -9.71748,-4.08149 -11.99301,-9.08638 -2.73909,-4.18794 -10.7163,-2.4132 -11.79788,-8.18388 2.69478,-6.02489 10.23852,-8.22577 15.68064,-11.56911 11.00775,-6.91957 19.71603,-17.72534 23.81435,-30.11222 2.54088,-6.93547 10.15994,-17.90208 18.0663,-10.42079 7.83682,7.53247 10.92732,18.88895 20.0816,25.2595 7.53744,6.68104 16.86279,10.69178 26.53378,13.12015 5.03251,0.95521 6.4397,7.85525 1.32992,10.15742 -7.10523,1.36971 -12.17276,6.07551 -19.48123,7.08389 -8.49753,5.01654 -1.22066,14.0566 3.69575,18.9604 3.47543,2.5112 6.958,8.33415 1.28114,2.70984 -3.59746,-4.77508 -13.72031,-14.22329 -10.11287,-16.94747 1.01125,-8.18803 12.99138,-4.83486 14.10816,-10.60412 -5.64819,-3.82689 7.80044,2.46742 9.13676,-1.53522 8.31999,-5.50507 -1.66773,-9.95826 -7.16677,-10.82677 -12.43946,-3.86851 -23.34385,-12.18101 -30.59748,-22.97643 -3.71481,-5.68352 -6.69029,-13.69446 -13.86464,-15.51105 -4.23521,-0.16643 -7.31702,2.90697 -9.524,7.27557 -4.32191,8.19365 -6.82947,17.55163 -13.85508,24.15169 -6.78443,9.30648 -18.43475,12.76327 -26.97152,19.6858 -3.38688,4.75555 4.63603,6.4487 7.65169,7.25166 4.8481,2.7014 6.15145,10.49282 12.96034,10.13279 6.84769,0.91717 12.46859,-3.07991 18.39985,1.43743 7.95093,3.80533 16.63284,-0.41035 22.14798,-5.39018 -3.9066,6.99774 -13.47853,9.39772 -21.08145,6.75635 -5.17007,-2.56257 -10.10079,-2.94836 -15.97704,-1.55109 -2.84837,2.40372 -3.72014,8.24183 -6.40066,11.58201 -7.39665,13.95224 -20.70661,23.49134 -34.28222,30.84974 -10.99687,5.37001 0.0789,16.73561 8.50703,14.68077 8.57911,-2.60534 5.59413,-2.00811 7.44111,5.12069 4.41141,7.13122 17.41411,6.84277 20.72739,-1.00511 5.85446,2.43035 8.92062,7.13595 1.20718,1.81632 -3.34407,2.37298 -7.31911,6.43547 -12.67888,4.99422 z m 30.51938,-126.97365 c 0.27127,-0.60197 0.17238,0.41987 0,0 z"
         style="fill:#89f996;fill-opacity:1;stroke:#68bd72;stroke-width:0.67365062;stroke-miterlimit:4;stroke-dasharray:none;stroke-opacity:1" />
      <text
         sodipodi:linespacing="125%"
         id="text4164"
         y="472.50848"
         x="292.00067"
         style="font-style:normal;font-variant:normal;font-weight:300;font-stretch:normal;font-size:50.52379608px;line-height:125%;font-family:'Josefin Sans';-inkscape-font-specification:'Josefin Sans Light';letter-spacing:0px;word-spacing:0px;fill:#68bd72;fill-opacity:1;stroke:none;stroke-width:1px;stroke-linecap:butt;stroke-linejoin:miter;stroke-opacity:1"
         xml:space="preserve"><tspan
           style="font-style:normal;font-variant:normal;font-weight:300;font-stretch:normal;font-size:50.52379608px;font-family:'Josefin Sans';-inkscape-font-specification:'Josefin Sans Light';fill:#68bd72;fill-opacity:1"
           y="472.50848"
           x="292.00067"
           id="tspan4166"
           sodipodi:role="line">Pine</tspan></text>
    </g>
    <text
       xml:space="preserve"
       style="font-style:normal;font-variant:normal;font-weight:300;font-stretch:normal;font-size:25px;line-height:125%;font-family:'Josefin Sans';-inkscape-font-specification:'Josefin Sans Light';letter-spacing:0px;word-spacing:0px;opacity:0.85;fill:#000000;fill-opacity:1;stroke:none;stroke-width:1px;stroke-linecap:butt;stroke-linejoin:miter;stroke-opacity:1"
       x="238.53156"
       y="603.58844"
       id="text4981"
       sodipodi:linespacing="125%"><tspan
         sodipodi:role="line"
         id="tspan4983"
         x="238.53156"
         y="603.58844">Take care of your logs</tspan></text>
  </g>
</svg>
