<?xml version="1.0" encoding="UTF-8" standalone="no"?>
<!-- Created with Inkscape (http://www.inkscape.org/) -->

<svg
   xmlns:dc="http://purl.org/dc/elements/1.1/"
   xmlns:cc="http://creativecommons.org/ns#"
   xmlns:rdf="http://www.w3.org/1999/02/22-rdf-syntax-ns#"
   xmlns:svg="http://www.w3.org/2000/svg"
   xmlns="http://www.w3.org/2000/svg"
   xmlns:sodipodi="http://sodipodi.sourceforge.net/DTD/sodipodi-0.dtd"
   xmlns:inkscape="http://www.inkscape.org/namespaces/inkscape"
   width="210mm"
   height="297mm"
   viewBox="0 0 744.09448819 1052.3622047"
   id="svg2"
   version="1.1"
   inkscape:version="0.91 r13725"
   sodipodi:docname="drawing.svg">
  <defs
     id="defs4" />
  <sodipodi:namedview
     id="base"
     pagecolor="#ffffff"
     bordercolor="#666666"
     borderopacity="1.0"
     inkscape:pageopacity="0.0"
     inkscape:pageshadow="2"
     inkscape:zoom="0.35"
     inkscape:cx="-665.06928"
     inkscape:cy="267.96464"
     inkscape:document-units="px"
     inkscape:current-layer="layer1"
     showgrid="false"
     showborder="false"
     inkscape:window-width="1304"
     inkscape:window-height="745"
     inkscape:window-x="54"
     inkscape:window-y="-8"
     inkscape:window-maximized="1" />
  <metadata
     id="metadata7">
    <rdf:RDF>
      <cc:Work
         rdf:about="">
        <dc:format>image/svg+xml</dc:format>
        <dc:type
           rdf:resource="http://purl.org/dc/dcmitype/StillImage" />
        <dc:title></dc:title>
      </cc:Work>
    </rdf:RDF>
  </metadata>
  <g
     inkscape:label="Layer 1"
     inkscape:groupmode="layer"
     id="layer1">
    <path
       style="fill:#89f996;fill-opacity:1;stroke:#68bd72;stroke-width:2;stroke-miterlimit:4;stroke-dasharray:none;stroke-opacity:1"
       d="m -975.78486,846.71119 c 2.06004,-3.56773 2.10961,1.65055 0,0 z m 223.9221,-41.53788 c -19.51125,2.28174 -40.73332,-9.07456 -38.80631,-31.61946 1.84899,-13.78097 0.22773,-70.50165 4.71652,-28.39232 -1.8144,19.10249 -7.42596,52.41538 19.89786,55.45288 55.44498,8.20196 47.402,-34.9169 39.58527,-14.32181 -8.01138,1.64233 20.78156,-23.69847 7.51808,-35.99956 8.06363,-41.29744 -16.81638,11.12528 -26.20409,21.91864 -18.49667,30.32136 -0.82297,-6.81374 9.50285,-18.08052 5.3275,-17.43795 36.9789,-37.6873 2.51142,-25.00042 -7.88538,12.87218 -22.23236,37.00379 -28.08066,41.11163 7.49475,-10.70025 37.67534,-55.20522 11.41558,-36.39441 -10.13718,19.07796 -14.09151,13.44506 -1.83177,-1.36511 -9.84719,-5.65026 -42.91672,-4.08837 -60.564,-11.04198 -20.81571,-11.6742 -43.5771,11.87835 -65.86491,0.03 -15.76351,-9.49934 -25.93359,-14.43126 -44.9828,-5.23052 -22.89328,4.78657 -44.97608,-3.84462 -62.5994,-17.88922 -6.08396,-1.01329 -14.23616,-25.20209 -4.46758,-8.99914 17.1698,19.38705 44.96068,30.87539 70.8266,22.99645 19.30983,-2.56023 24.16982,-16.79471 34.93022,3.60246 19.7647,14.95243 45.50769,-3.61891 61.2272,-1.30922 39.03135,14.96896 82.63971,15.96039 122.82166,4.54173 15.78073,-3.03416 33.23419,-10.30522 46.4992,-14.84901 7.45031,12.90196 34.31488,6.37739 48.27702,5.22519 20.76553,-6.0578 45.27825,-10.98825 58.48786,-29.62869 3.69194,13.00642 36.62263,18.45862 46.88357,2.34425 3.91793,-20.14491 -19.85699,-29.48158 -33.06129,-39.83551 -40.67105,-30.05574 -76.51802,-69.32009 -92.78785,-117.9552 -23.45791,16.61788 -57.34795,20.06803 -82.72464,5.96022 12.72014,2.47829 43.06305,11.11767 62.08769,1.59567 20.41252,-13.9059 34.08328,-21.8031 57.68024,-24.83501 19.03554,-12.22735 11.5376,-38.78982 40.83528,-26.78567 22.8675,-0.12643 26.47729,-30.02543 6.91367,-38.54428 -22.43138,-10.82713 -45.92883,-20.11839 -64.0469,-37.82974 -14.28051,-12.46263 -35.63431,-24.13337 -40.44376,-41.93535 10.23852,14.41597 26.48143,29.21094 42.55732,39.7109 18.38053,16.67553 43.17847,27.50045 64.48212,36.0371 4.53108,4.74881 15.24272,12.60435 13.69704,22.9814 4.91883,28.33586 -36.69572,15.74616 -44.61131,25.9248 -4.78596,29.47402 -39.59844,21.09739 -53.12965,36.00215 17.29324,58.72819 66.23998,101.21378 115.21937,134.24557 11.21166,8.83969 18.48563,28.07123 0.91658,34.99727 -24.48075,7.33345 -44.88453,-13.47618 -64.69696,9.32261 -27.11601,10.98292 -59.26296,19.76086 -87.30751,7.47941 -15.14213,11.44996 -49.06713,6.65268 -54.89253,20.82807 -8.42104,21.8062 8.22264,44.20127 -1.93038,65.36902 -8.82024,11.61408 -23.99959,7.7171 -36.45592,10.1647 z m 5.92503,-15.6914 c 4.60835,-8.33239 35.95617,-52.09065 18.84149,-24.69712 -5.9603,7.73912 -10.91471,21.19123 -18.84149,24.69712 z M -993.9498,681.09772 c -1.86361,-23.57817 31.99996,-30.13943 44.06632,-46.81921 27.32191,-26.88741 49.49534,-59.10707 62.26714,-95.20682 1.22408,13.21123 -12.14114,32.5409 -19.06517,45.95693 -20.09287,31.6956 -46.92583,58.44672 -77.43029,80.0529 -7.07156,3.15339 -5.75443,13.40723 -9.838,16.0162 z m 115.75742,-143.57391 c -20.10329,2.32011 -33.58353,-18.48903 -37.34821,-31.36782 -21.00913,7.27183 -58.25002,-3.75202 -54.96627,-30.80974 12.21472,-22.1962 41.8023,-26.19012 59.37753,-43.50253 32.5867,-23.36771 57.80588,-56.74461 71.57347,-94.14581 -11.44303,-3.98184 -28.85017,-12.11754 -35.60601,-26.97653 -8.13206,-12.43357 -31.81556,-7.16455 -35.02672,-24.29711 8.00049,-17.88728 30.39707,-24.42149 46.55421,-34.3475 32.68095,-20.54352 58.53487,-52.62473 70.70238,-89.40012 7.54362,-20.59071 30.16384,-53.14945 53.63703,-30.93826 23.26666,22.36313 32.44207,56.07936 59.62017,74.99287 22.37797,19.83532 50.06388,31.7428 78.77615,38.95238 14.94095,2.83594 19.11873,23.32146 3.94842,30.15636 -21.0947,4.06652 -36.13971,18.03757 -57.83787,21.03134 -25.22828,14.89359 -3.62401,41.73261 10.97232,56.2915 10.31816,7.45548 20.65765,24.74323 3.80365,8.04524 -10.6805,-14.17674 -40.73428,-42.22751 -30.02412,-50.31533 3.0023,-24.30942 38.57005,-14.35418 41.88568,-31.48253 -16.76887,-11.36164 23.15866,7.32552 27.12605,-4.55791 24.70124,-16.34399 -4.95128,-29.56508 -21.27733,-32.14359 -36.93157,-11.48522 -69.30554,-36.16416 -90.84078,-68.21466 -11.02896,-16.87381 -19.86289,-40.65747 -41.16275,-46.05074 -12.57392,-0.49411 -21.7235,8.63051 -28.27577,21.60043 -12.83131,24.32611 -20.27599,52.10899 -41.1343,71.7039 -20.14228,27.62999 -54.73089,37.89285 -80.07572,58.44514 -10.05527,14.11874 13.76389,19.14554 22.71712,21.52944 14.39345,8.02017 18.26296,31.15211 38.47784,30.0832 20.33018,2.72299 37.01801,-9.14391 54.62736,4.26759 23.6055,11.29765 49.38121,-1.21828 65.75503,-16.0029 -11.59824,20.77559 -40.01636,27.90089 -62.58866,20.05892 -15.34935,-7.608 -29.98823,-8.75338 -47.43421,-4.60503 -8.45647,7.13641 -11.04466,24.46915 -19.00284,34.38582 -21.95991,41.42278 -61.47582,69.74338 -101.7804,91.58974 -32.64861,15.94299 0.23409,49.68632 25.25643,43.58569 25.4705,-7.73498 16.60839,-5.96186 22.09189,15.20282 13.09701,21.17187 51.70076,20.31549 61.53757,-2.98409 17.3813,7.21549 26.48441,21.18591 3.58398,5.39249 -9.92824,7.04513 -21.72973,19.10624 -37.64232,14.82733 z m 90.60893,-376.97183 c 0.8054,-1.78719 0.51179,1.24655 0,0 z"
       id="path4147"
       inkscape:connector-curvature="0"
       sodipodi:nodetypes="cccccccccccccccccccccccccccccccccccccccccccccccccccccccccccccccccccccccccccccccccccccccccccccccccc" />
    <text
       xml:space="preserve"
       style="font-style:normal;font-variant:normal;font-weight:200;font-stretch:normal;font-size:150px;line-height:125%;font-family:Lato;-inkscape-font-specification:'Lato Ultra-Light';letter-spacing:0px;word-spacing:0px;fill:#68bd72;fill-opacity:1;stroke:none;stroke-width:1px;stroke-linecap:butt;stroke-linejoin:miter;stroke-opacity:1"
       x="-887.86542"
       y="955.28601"
       id="text4164"
       sodipodi:linespacing="125%"><tspan
         sodipodi:role="line"
         id="tspan4166"
         x="-887.86542"
         y="955.28601"
         style="font-style:normal;font-variant:normal;font-weight:200;font-stretch:normal;font-size:150px;font-family:Lato;-inkscape-font-specification:'Lato Ultra-Light';fill:#68bd72;fill-opacity:1">Pine</tspan></text>
  </g>
</svg>
